<mxfile host="app.diagrams.net" agent="Mozilla/5.0 (Windows NT 10.0; Win64; x64) AppleWebKit/537.36 (KHTML, like Gecko) Chrome/128.0.0.0 Safari/537.36 OPR/114.0.0.0" version="24.8.6">
  <diagram name="Page-1" id="UGnYyzDelSOmIal4Z6f-">
    <mxGraphModel dx="913" dy="583" grid="1" gridSize="10" guides="1" tooltips="1" connect="1" arrows="1" fold="1" page="1" pageScale="1" pageWidth="827" pageHeight="1169" math="0" shadow="0">
      <root>
        <mxCell id="0" />
        <mxCell id="1" parent="0" />
        <mxCell id="tO6Z-8AhxxCTKm5LTyCO-1" value="STAGE 1" style="text;html=1;align=center;verticalAlign=middle;resizable=0;points=[];autosize=1;strokeColor=none;fillColor=none;" vertex="1" parent="1">
          <mxGeometry x="379" width="70" height="30" as="geometry" />
        </mxCell>
        <mxCell id="tO6Z-8AhxxCTKm5LTyCO-2" value="Fonction principale: Pointer une antenne sur monture Ã©quatoriales vers un satellite" style="whiteSpace=wrap;html=1;aspect=fixed;" vertex="1" parent="1">
          <mxGeometry x="254" y="40" width="320" height="320" as="geometry" />
        </mxCell>
        <mxCell id="tO6Z-8AhxxCTKm5LTyCO-3" value="" style="endArrow=classic;html=1;rounded=0;entryX=0;entryY=0.5;entryDx=0;entryDy=0;" edge="1" parent="1" target="tO6Z-8AhxxCTKm5LTyCO-2">
          <mxGeometry width="50" height="50" relative="1" as="geometry">
            <mxPoint x="80" y="200" as="sourcePoint" />
            <mxPoint x="440" y="280" as="targetPoint" />
          </mxGeometry>
        </mxCell>
        <mxCell id="tO6Z-8AhxxCTKm5LTyCO-4" value="" style="endArrow=classic;html=1;rounded=0;entryX=0;entryY=0.5;entryDx=0;entryDy=0;" edge="1" parent="1">
          <mxGeometry width="50" height="50" relative="1" as="geometry">
            <mxPoint x="574" y="199.5" as="sourcePoint" />
            <mxPoint x="748" y="199.5" as="targetPoint" />
          </mxGeometry>
        </mxCell>
        <mxCell id="tO6Z-8AhxxCTKm5LTyCO-5" value="INPUTS LIST" style="text;html=1;align=center;verticalAlign=middle;whiteSpace=wrap;rounded=0;" vertex="1" parent="1">
          <mxGeometry x="50" y="150" width="60" height="30" as="geometry" />
        </mxCell>
        <mxCell id="tO6Z-8AhxxCTKm5LTyCO-6" value="OUTPUTS LIST" style="text;html=1;align=center;verticalAlign=middle;whiteSpace=wrap;rounded=0;" vertex="1" parent="1">
          <mxGeometry x="720" y="140" width="60" height="30" as="geometry" />
        </mxCell>
      </root>
    </mxGraphModel>
  </diagram>
</mxfile>
